<svg width="346" height="317" viewBox="0 0 346 317" fill="none" xmlns="http://www.w3.org/2000/svg">
<g id="Portfolio logo">
<g id="Circle group">
<circle id="Ellipse 1" cx="173" cy="152" r="151" stroke="#FF5D1C" stroke-width="2"/>
</g>
<g id="Text group">
<g id="AV">
<path d="M108.96 241H105.869L139.142 147.909H143.142L176.415 241H173.324L141.324 151.545H140.96L108.96 241ZM119.506 206.636H162.778V209.545H119.506V206.636Z" fill="#FF5D1C"/>
<path d="M173.472 147.909L195.972 218.636H196.835L219.381 147.909H241.199L209.108 241H183.744L151.608 147.909H173.472Z" fill="#D6D6D6"/>
</g>
</g>
<g id="React-icon 1" clip-path="url(#clip0_103_17)">
<g id="React group">
<path id="Vector" d="M172.5 82.9674C188.084 82.9674 200.717 78.281 200.717 72.5C200.717 66.719 188.084 62.0326 172.5 62.0326C156.916 62.0326 144.283 66.719 144.283 72.5C144.283 78.281 156.916 82.9674 172.5 82.9674Z" stroke="#D6D6D6"/>
<path id="Vector_2" d="M163.17 77.7337C170.962 90.846 181.456 99.1323 186.609 96.2418C191.762 93.3513 189.623 80.3785 181.83 67.2663C174.038 54.154 163.544 45.8677 158.391 48.7582C153.238 51.6487 155.378 64.6215 163.17 77.7337Z" stroke="#D6D6D6"/>
<path id="Vector_3" d="M163.17 67.2663C155.378 80.3785 153.238 93.3513 158.391 96.2418C163.544 99.1323 174.038 90.8459 181.83 77.7337C189.623 64.6215 191.762 51.6487 186.609 48.7582C181.456 45.8677 170.962 54.154 163.17 67.2663Z" stroke="#D6D6D6"/>
<path id="Vector_4" d="M172.5 77.6091C175.404 77.6091 177.759 75.3217 177.759 72.5C177.759 69.6783 175.404 67.3909 172.5 67.3909C169.596 67.3909 167.241 69.6783 167.241 72.5C167.241 75.3217 169.596 77.6091 172.5 77.6091Z" fill="#D6D6D6"/>
</g>
</g>
</g>
<defs>
<clipPath id="clip0_103_17">
<rect width="59" height="51" fill="white" transform="translate(143 47)"/>
</clipPath>
</defs>
</svg>
